<svg width="22" height="22" viewBox="0 0 22 22" fill="none" xmlns="http://www.w3.org/2000/svg">
<path d="M6.41675 16.5C4.74023 16.8774 3.66675 17.4573 3.66675 18.1076C3.66675 19.2448 6.94999 20.1667 11.0001 20.1667C15.0502 20.1667 18.3334 19.2448 18.3334 18.1076C18.3334 17.4573 17.2599 16.8774 15.5834 16.5" stroke="#141B34" stroke-width="1.5" stroke-linecap="round"/>
<path d="M13.2916 8.24992C13.2916 9.51556 12.2656 10.5416 10.9999 10.5416C9.73428 10.5416 8.70825 9.51556 8.70825 8.24992C8.70825 6.98427 9.73428 5.95825 10.9999 5.95825C12.2656 5.95825 13.2916 6.98427 13.2916 8.24992Z" stroke="#141B34" stroke-width="1.5"/>
<path d="M12.1525 16.0357C11.8433 16.3335 11.4301 16.4999 11.0001 16.4999C10.57 16.4999 10.1568 16.3335 9.84758 16.0357C7.01636 13.2923 3.22218 10.2276 5.07249 5.77834C6.07293 3.37263 8.47445 1.83325 11.0001 1.83325C13.5257 1.83325 15.9272 3.37264 16.9276 5.77834C18.7756 10.222 14.9907 13.3018 12.1525 16.0357Z" stroke="#141B34" stroke-width="1.5"/>
</svg>
